{"title":"The Life Aquatic with Steve Zissou 2004 DVDRip [H.264 - MP4 - AA","uid":5422641,"size":1730240017,"categoryP":"video","categoryS":"movies","magnet":"?xt=urn:btih:d139fe2c6afa70db51e89426eaa4547cbcdfa488&amp;dn=The+Life+Aquatic+with+Steve+Zissou+2004+DVDRip+%5BH.264+-+MP4+-+AA&amp;tr=udp%3A%2F%2Ftracker.openbittorrent.com%3A80&amp;tr=udp%3A%2F%2Fopen.demonii.com%3A1337&amp;tr=udp%3A%2F%2Ftracker.coppersurfer.tk%3A6969&amp;tr=udp%3A%2F%2Fexodus.desync.com%3A6969","seeders":1,"leechers":0,"uploader":"mindbreaker3103","files":-1,"time":1268093517,"description":"imdb : http://www.imdb.com/title/tt0362270/\nPlot: With a plan to exact revenge on a mythical shark that killed his partner, oceanographer Steve Zissou rallies a crew that includes his estranged wife, a journalist, and a man who may or may not be his son.\nTotal Size : 1.61 GB\n\nGeneral\nComplete name : The Life Aquatic with Steve Zissou 2004 DVDRip [H.264 - MP4 - AAC] ~ Mindbreaker\nFormat : H.264/AAC/MP4 - Anamophic\nSource : DVD (unknow)\nFile size : 1.61 GiB\nDuration : 1h 53mn\nOverall bit rate : 2 030 Kbps\n\n\nVideo\nID : 1\nFormat : AVC\nFormat/Info : Advanced Video Codec\nFormat profile : &lt;a class=&quot;__cf_email__&quot; href=&quot;/cdn-cgi/l/email-protection&quot; data-cfemail=&quot;094468606749453a2739&quot;&gt;[email&amp;#160;protected]&lt;/a&gt;&lt;script cf-hash='f9e31' type=&quot;text/javascript&quot;&gt;\n/* &lt;![CDATA[ */!function(){try{var t=&quot;currentScript&quot;in document?document.currentScript:function(){for(var t=document.getElementsByTagName(&quot;script&quot;),e=t.length;e--;)if(t[e].getAttribute(&quot;cf-hash&quot;))return t[e]}();if(t&amp;&amp;t.previousSibling){var e,r,n,i,c=t.previousSibling,a=c.getAttribute(&quot;data-cfemail&quot;);if(a){for(e=&quot;&quot;,r=parseInt(a.substr(0,2),16),n=2;a.length-n;n+=2)i=parseInt(a.substr(n,2),16)^r,e+=String.fromCharCode(i);e=document.createTextNode(e),c.parentNode.replaceChild(e,c)}}}catch(u){}}();/* ]]&gt; */&lt;/script&gt;\nDuration : 1h 53mn\nBit rate : 1 866 Kbps\nWidth : 720 pixels\nHeight : 434 pixels\nDisplay aspect ratio : 2.35:1\nFrame rate : 25.000 fps\nBits/(Pixel*Frame) : 0.239\nStream size : 1.48 GiB (92%)\nWriting library : x264 core 79\n\nAudio\nID : 2\nFormat : AAC\nFormat/Info : Advanced Audio Codec\nFormat profile : LC\nDuration : 1h 53mn\nBit rate : 160 Kbps\nChannel(s) : 2 channels\nSampling rate : 48.0 KHz\nStream size : 139 MiB (8%)\nLanguage : English\n\nSubtitle\nFormat : SubRip\nLanguage : English\nSource : DVD &lt;a href=&quot;\nhttp://genesis.1337x.org:1337/announce&quot; rel=&quot;nofollow&quot; target=&quot;_NEW&quot;&gt;\nhttp://genesis.1337x.org:1337/announce&lt;/a&gt;\nhttp://tracker.openbittorrent.com/announce","torrent":{"xt":"urn:btih:d139fe2c6afa70db51e89426eaa4547cbcdfa488","amp;dn":"The+Life+Aquatic+with+Steve+Zissou+2004+DVDRip+%5BH.264+-+MP4+-+AA","amp;tr":["udp%3A%2F%2Ftracker.openbittorrent.com%3A80","udp%3A%2F%2Fopen.demonii.com%3A1337","udp%3A%2F%2Ftracker.coppersurfer.tk%3A6969","udp%3A%2F%2Fexodus.desync.com%3A6969"],"infoHash":"d139fe2c6afa70db51e89426eaa4547cbcdfa488","infoHashBuffer":{"type":"Buffer","data":[209,57,254,44,106,250,112,219,81,232,148,38,234,164,84,124,188,223,164,136]},"announce":[],"urlList":[]}}